<svg width="400" height="400" viewBox="0 0 400 400" xmlns="http://www.w3.org/2000/svg">
    <defs>
        <!-- 渐变定义 -->
        <linearGradient id="hair-gradient" x1="0%" y1="0%" x2="100%" y2="100%">
            <stop offset="0%" style="stop-color:#FFD700"/>
            <stop offset="100%" style="stop-color:#FFA500"/>
        </linearGradient>
        
        <linearGradient id="eth-gradient" x1="0%" y1="0%" x2="100%" y2="100%">
            <stop offset="0%" style="stop-color:#6366f1"/>
            <stop offset="100%" style="stop-color:#8b5cf6"/>
        </linearGradient>
        
        <!-- 阴影效果 -->
        <filter id="shadow" x="-20%" y="-20%" width="140%" height="140%">
            <feGaussianBlur in="SourceAlpha" stdDeviation="5"/>
            <feOffset dx="0" dy="4"/>
            <feComponentTransfer>
                <feFuncA type="linear" slope="0.3"/>
            </feComponentTransfer>
            <feMerge>
                <feMergeNode/>
                <feMergeNode in="SourceGraphic"/>
            </feMerge>
        </filter>
    </defs>
    
    <!-- Solana标志 -->
    <g transform="translate(240, 40) rotate(-15)" filter="url(#shadow)">
        <path d="M0 100 h120 l-30 40 h-120 z" fill="url(#eth-gradient)">
            <animate attributeName="d"
                     dur="3s"
                     repeatCount="indefinite" 
                     values="M0 100 h120 l-30 40 h-120 z;
                            M0 110 h120 l-30 40 h-120 z;
                            M0 100 h120 l-30 40 h-120 z"
                     calcMode="spline"
                     keySplines="0.4 0 0.2 1; 0.4 0 0.2 1"/>
        </path>
        <path d="M30 40 h120 l-30 40 h-120 z" fill="url(#eth-gradient)" opacity="0.8">
            <animate attributeName="d"
                     dur="3s"
                     repeatCount="indefinite"
                     values="M30 40 h120 l-30 40 h-120 z;
                            M30 50 h120 l-30 40 h-120 z;
                            M30 40 h120 l-30 40 h-120 z"
                     calcMode="spline" 
                     keySplines="0.4 0 0.2 1; 0.4 0 0.2 1"/>
        </path>
        <path d="M60 0 h120 l-30 40 h-120 z" fill="url(#eth-gradient)" opacity="0.6">
            <animate attributeName="d"
                     dur="3s"
                     repeatCount="indefinite"
                     values="M60 0 h120 l-30 40 h-120 z;
                            M60 10 h120 l-30 40 h-120 z;
                            M60 0 h120 l-30 40 h-120 z"
                     calcMode="spline"
                     keySplines="0.4 0 0.2 1; 0.4 0 0.2 1"/>
        </path>
    </g>
    
    <!-- 特朗普头像 -->
    <g transform="translate(50, 80)" filter="url(#shadow)">
        <!-- 头发 -->
        <path d="M20 120
                 C20 80, 60 40, 120 40
                 C180 40, 220 80, 220 120
                 L220 80
                 C220 60, 200 30, 180 25
                 C160 20, 140 15, 120 20
                 C100 25, 80 35, 60 50
                 C40 65, 30 85, 20 100
                 L20 120
                 M40 60
                 C60 40, 100 30, 120 35
                 C140 40, 160 50, 180 70"
              fill="url(#hair-gradient)"/>
        
        <!-- 脸部 -->
        <rect x="40" y="100" width="160" height="200" rx="30" fill="#FFE4C4"/>
        
        <!-- 眉毛 -->
        <path d="M70 140 
                 C90 130, 110 140, 120 145
                 M130 145
                 C140 140, 160 130, 180 140" 
              stroke="#FFD700" 
              stroke-width="8" 
              fill="none"/>
        
        <!-- 眼睛 -->
        <g transform="translate(80, 160)">
            <ellipse cx="0" cy="0" rx="20" ry="10" fill="#1B1B1B"/>
            <ellipse cx="80" cy="0" rx="20" ry="10" fill="#1B1B1B"/>
        </g>
        
        <!-- 嘴巴 -->
        <path d="M80 240
                 C100 250, 140 250, 160 240
                 C140 260, 100 260, 80 240" 
              fill="#1B1B1B"/>
    </g>
    
    <!-- 动画效果 -->
    <style>
        @keyframes float {
            0%, 100% { transform: translateY(0) rotate(1deg); }
            50% { transform: translateY(-20px) rotate(-1deg); }
        }
        svg { animation: float 6s ease-in-out infinite; }
    </style>
</svg> 